<?xml version="1.0" standalone="no"?>
<!DOCTYPE svg PUBLIC "-//W3C//DTD SVG 20010904//EN"
 "http://www.w3.org/TR/2001/REC-SVG-20010904/DTD/svg10.dtd">
<svg version="1.0" xmlns="http://www.w3.org/2000/svg"
 width="195.000000pt" height="53.000000pt" viewBox="0 0 195.000000 53.000000"
 preserveAspectRatio="xMidYMid meet">

<g transform="translate(0.000000,53.000000) scale(0.100000,-0.100000)"
fill="#000000" stroke="none">
<path d="M380 515 c0 -8 7 -15 15 -15 13 0 15 -23 15 -150 0 -127 -2 -150 -15
-150 -8 0 -15 -7 -15 -15 0 -18 31 -20 48 -3 9 9 15 9 24 0 18 -18 79 -14 115
8 120 73 47 269 -87 233 l-40 -10 0 46 c0 26 -5 52 -12 59 -17 17 -48 15 -48
-3z m187 -147 c62 -57 18 -168 -67 -168 -37 0 -60 35 -60 91 0 58 12 87 43 99
28 11 56 3 84 -22z"/>
<path d="M856 514 c-13 -13 -16 -43 -16 -174 0 -143 -2 -159 -17 -163 -10 -3
0 -5 22 -5 22 0 32 2 23 5 -16 4 -18 17 -18 97 0 100 13 135 53 137 16 1 17 3
5 6 -9 2 -26 -1 -37 -7 -20 -10 -21 -8 -21 34 0 73 58 104 87 46 9 -17 13 -20
13 -8 0 24 -27 48 -55 48 -13 0 -31 -7 -39 -16z"/>
<path d="M1290 516 c0 -7 9 -16 20 -19 19 -5 20 -14 20 -151 0 -91 -4 -146
-10 -146 -5 0 -10 -7 -10 -15 0 -10 10 -15 28 -15 l29 0 -5 79 c-2 44 -2 90 2
104 6 27 47 49 73 40 44 -15 53 -34 53 -107 0 -49 5 -79 16 -94 17 -25 64 -30
64 -7 0 8 -9 15 -20 15 -18 0 -20 7 -21 63 0 85 -17 127 -58 151 -28 16 -40
18 -72 9 l-39 -10 0 43 c0 46 -19 74 -51 74 -10 0 -19 -6 -19 -14z"/>
<path d="M40 425 c0 -9 9 -15 25 -15 l25 0 0 -119 c0 -117 -1 -120 -26 -140
-15 -12 -35 -21 -45 -21 -11 0 -19 -7 -19 -15 0 -40 91 -2 111 47 19 45 19
239 0 261 -17 22 -71 23 -71 2z"/>
<path d="M213 420 c-37 -15 -63 -68 -63 -128 0 -48 4 -58 34 -88 29 -29 41
-34 81 -34 40 0 52 5 80 33 102 102 -1 270 -132 217z m91 -31 c25 -12 56 -63
56 -94 0 -25 -28 -73 -49 -85 -78 -41 -161 42 -126 126 23 56 68 76 119 53z"/>
<path d="M670 410 c-41 -41 -13 -100 60 -130 57 -24 46 -84 -14 -78 -21 2 -34
10 -41 26 -8 19 -45 33 -45 16 0 -12 24 -50 39 -61 26 -20 88 -16 111 7 40 40
25 80 -47 126 -56 36 -64 57 -31 78 13 8 23 7 39 -2 30 -19 53 3 25 24 -28 20
-73 17 -96 -6z"/>
<path d="M1800 416 c0 -7 9 -16 20 -19 18 -5 20 -14 20 -100 0 -64 -4 -97 -12
-99 -21 -7 3 -28 33 -28 19 0 29 5 29 15 0 8 -4 15 -10 15 -6 0 -10 32 -10 75
0 67 3 79 25 100 13 14 31 25 40 25 8 0 15 7 15 15 0 18 -27 19 -59 1 -21 -12
-27 -12 -39 0 -17 18 -52 18 -52 0z"/>
<path d="M961 395 c-91 -77 -42 -225 75 -225 34 0 51 6 76 29 31 28 33 33 33
96 0 63 -2 68 -33 96 -43 39 -107 41 -151 4z m145 -19 c29 -29 34 -41 34 -81
0 -40 -5 -52 -34 -81 -72 -72 -176 -24 -176 80 0 70 43 115 109 116 24 0 42
-9 67 -34z"/>
<path d="M1173 409 c14 -9 17 -26 17 -119 0 -95 -2 -109 -17 -113 -10 -3 0 -5
22 -5 22 0 32 2 23 5 -15 4 -18 16 -18 77 0 112 18 145 85 159 15 4 14 5 -6 6
-15 0 -38 -8 -52 -19 -25 -20 -25 -20 -30 0 -3 11 -13 20 -24 20 -17 -1 -17
-1 0 -11z"/>
<path d="M641 126 c-10 -11 -7 -18 11 -31 14 -11 17 -15 6 -12 -10 4 -20 2
-23 -3 -4 -6 5 -10 19 -10 34 0 41 16 14 34 -19 14 -20 16 -5 16 10 0 15 5 12
10 -9 14 -20 12 -34 -4z"/>
<path d="M690 130 c0 -5 5 -10 10 -10 6 0 10 -11 10 -25 0 -14 5 -25 10 -25 6
0 10 11 10 25 0 14 5 25 10 25 6 0 10 5 10 10 0 6 -13 10 -30 10 -16 0 -30 -4
-30 -10z"/>
<path d="M770 114 c-14 -37 -13 -39 20 -40 17 -1 30 0 30 1 0 1 -5 16 -11 34
-13 38 -26 40 -39 5z"/>
<path d="M830 105 c0 -19 5 -35 10 -35 6 0 10 5 10 12 0 9 3 9 12 0 18 -18 23
-15 25 15 1 30 -11 43 -39 43 -14 0 -18 -8 -18 -35z"/>
<path d="M900 130 c0 -5 5 -10 10 -10 6 0 10 -11 10 -25 0 -14 5 -25 10 -25 6
0 10 11 10 25 0 14 5 25 10 25 6 0 10 5 10 10 0 6 -13 10 -30 10 -16 0 -30 -4
-30 -10z"/>
<path d="M1047 133 c-11 -10 -8 -63 3 -63 6 0 10 5 10 12 0 9 3 9 12 0 19 -19
25 -14 26 16 0 34 -31 56 -51 35z"/>
<path d="M1120 105 c0 -32 3 -35 28 -34 23 0 24 2 8 8 -15 6 -16 10 -7 16 11
6 11 9 0 16 -10 6 -11 9 -1 9 6 0 12 5 12 10 0 6 -9 10 -20 10 -16 0 -20 -7
-20 -35z"/>
<path d="M1183 125 c-3 -9 3 -23 13 -31 17 -14 17 -15 2 -10 -10 3 -18 1 -18
-4 0 -14 37 -12 46 2 4 6 -1 17 -11 25 -11 7 -13 13 -7 13 7 0 12 5 12 10 0
16 -30 12 -37 -5z"/>
<path d="M1235 130 c-3 -5 1 -10 9 -10 8 0 16 -12 19 -27 l4 -28 2 28 c0 17 7
27 17 27 8 0 12 5 9 10 -3 6 -17 10 -30 10 -13 0 -27 -4 -30 -10z"/>
<path d="M1312 115 c-17 -37 -15 -42 18 -42 17 0 30 4 30 8 0 14 -23 59 -30
59 -4 0 -12 -11 -18 -25z"/>
<path d="M1377 133 c-11 -10 -8 -63 3 -63 6 0 10 5 10 12 0 9 3 9 12 0 18 -18
23 -15 25 15 2 35 -30 57 -50 36z"/>
<path d="M1440 130 c0 -5 5 -10 10 -10 6 0 10 -11 10 -25 0 -14 5 -25 10 -25
6 0 10 11 10 25 0 14 5 25 10 25 6 0 10 5 10 10 0 6 -13 10 -30 10 -16 0 -30
-4 -30 -10z"/>
<path d="M1000 100 c0 -5 5 -10 10 -10 6 0 10 5 10 10 0 6 -4 10 -10 10 -5 0
-10 -4 -10 -10z"/>
<path d="M1540 100 c0 -5 5 -10 10 -10 6 0 10 5 10 10 0 6 -4 10 -10 10 -5 0
-10 -4 -10 -10z"/>
</g>
</svg>
